<?xml version="1.0" encoding="utf-8"?>
<!-- Generator: Adobe Illustrator 24.3.0, SVG Export Plug-In . SVG Version: 6.00 Build 0)  -->
<svg version="1.1" id="Capa_1" xmlns="http://www.w3.org/2000/svg" xmlns:xlink="http://www.w3.org/1999/xlink" x="0px" y="0px"
	 viewBox="0 0 512 512" style="enable-background:new 0 0 512 512;" xml:space="preserve">
<style type="text/css">
	.st0{fill:#6B30B5;}
</style>
<g>
	<g>
		<g>
			<path class="st0" d="M256,329.7c-99.6,0-180.7-59.7-180.7-133.2v-63.4C75.3,59.7,156.4,0,256,0c99.6,0,180.7,59.7,180.7,133.2
				v63.4C436.7,270,355.6,329.7,256,329.7z M256,18C169.8,18,99.7,69.7,99.7,133.2v63.4c0,63.5,70.1,115.2,156.3,115.2
				c86.2,0,156.3-51.7,156.3-115.2v-63.4C412.3,69.7,342.2,18,256,18z"/>
		</g>
		<g>
			<path class="st0" d="M424.5,175.1h-337c-6.7,0-12.2-4-12.2-9c0-5,5.5-9,12.2-9h337c6.7,0,12.2,4,12.2,9
				C436.7,171.1,431.2,175.1,424.5,175.1z"/>
		</g>
	</g>
	<g>
		<g>
			<path class="st0" d="M256,399.4c-141.2,0-256-84.6-256-188.7v-44.6c0-5,5.5-9,12.2-9s12.2,4,12.2,9v44.6
				c0,94.1,103.9,170.7,231.6,170.7c127.7,0,231.6-76.6,231.6-170.7v-45.9c0-5,5.5-9,12.2-9c6.7,0,12.2,4,12.2,9v45.9
				C512,314.8,397.2,399.4,256,399.4z"/>
		</g>
		<g>
			<path class="st0" d="M256,512c-6.7,0-12.2-4-12.2-9V390.4c0-5,5.5-9,12.2-9c6.7,0,12.2,4,12.2,9V503C268.2,508,262.7,512,256,512
				z"/>
		</g>
		<g>
			<path class="st0" d="M346.7,512H165.3c-6.7,0-12.2-4-12.2-9s5.5-9,12.2-9h181.3c6.7,0,12.2,4,12.2,9S353.4,512,346.7,512z"/>
		</g>
	</g>
</g>
</svg>
