<?xml version="1.0" encoding="utf-8"?>
<!-- Generator: Adobe Illustrator 24.3.0, SVG Export Plug-In . SVG Version: 6.00 Build 0)  -->
<svg version="1.1" id="Capa_1" xmlns="http://www.w3.org/2000/svg" xmlns:xlink="http://www.w3.org/1999/xlink" x="0px" y="0px"
	 viewBox="0 0 464.6 464.6" style="enable-background:new 0 0 464.6 464.6;" xml:space="preserve">
<style type="text/css">
	.st0{fill:#FFFFFF;}
</style>
<g>
	<g>
		<path class="st0" d="M441.4,134.2c-4.4-2.4-9.3-4-14.2-4.7c-23.9-3.5-46.1,13-49.7,36.9c-1.6,11.2,1.1,22.5,7.6,31.7l-46.6,42.3
			c-16.2-17.9-43.9-19.3-61.8-3.1c-3.9,3.6-7.2,7.8-9.6,12.5l-53.7-43.3c1.2-24.1-17.4-44.7-41.5-45.9S127.2,177.8,126,202
			c-0.1,2.8,0,5.5,0.4,8.3L75.8,262c-16.5-17.7-44.1-18.7-61.8-2.2c-17.7,16.5-18.7,44.1-2.2,61.8c16.5,17.7,44.1,18.7,61.8,2.2
			c11.9-11.1,16.7-27.9,12.4-43.6l48.8-49.9c14.5,19.4,41.9,23.3,61.2,8.8c4.5-3.3,8.2-7.5,11.1-12.2l55.3,44.6
			c0.9,21,16.6,38.3,37.4,41.4c2.1,0.3,4.3,0.5,6.5,0.5c24.2-0.1,43.7-19.7,43.7-43.9c0-3.7-0.5-7.5-1.5-11.1l51.8-47
			c21.3,11.4,47.8,3.3,59.2-18C470.8,172.1,462.7,145.5,441.4,134.2z M67.2,295.2c-1.9,13-14,22-27,20.1c-13-1.9-22-14-20.1-27
			c1.9-13,14-22,27-20.1c0,0,0,0,0,0C60.1,270.2,69.1,282.3,67.2,295.2z M193.2,207.6L193.2,207.6c-1.9,13-14,22-27,20s-22-14-20-27
			c1.7-11.6,11.7-20.3,23.4-20.3c1.2,0,2.3,0.1,3.5,0.3C186.1,182.5,195.1,194.6,193.2,207.6z M329.6,273.1c-1.9,13-14,22-27,20
			s-22-14-20-27c1.7-11.6,11.7-20.3,23.5-20.3c1.2,0,2.3,0.1,3.5,0.3C322.5,248.1,331.5,260.1,329.6,273.1L329.6,273.1L329.6,273.1
			L329.6,273.1z M444.3,176.2c-1.9,13-14,22-27,20.1s-22-14-20.1-27s14-22,27-20.1c0,0,0,0,0,0C437.2,151.2,446.2,163.2,444.3,176.2
			L444.3,176.2L444.3,176.2z"/>
	</g>
</g>
</svg>
