<?xml version="1.0" encoding="utf-8"?>
<!-- Generator: Adobe Illustrator 24.3.0, SVG Export Plug-In . SVG Version: 6.00 Build 0)  -->
<svg version="1.1" id="Capa_1" xmlns="http://www.w3.org/2000/svg" xmlns:xlink="http://www.w3.org/1999/xlink" x="0px" y="0px"
	 viewBox="0 0 480 480" style="enable-background:new 0 0 480 480;" xml:space="preserve">
<style type="text/css">
	.st0{fill:#FFFFFF;}
</style>
<g>
	<g>
		<g>
			<path class="st0" d="M240,194.9c2.7,0,4.8-2,4.8-4.5v-18.1c0-2.5-2.2-4.5-4.8-4.5c-2.7,0-4.8,2-4.8,4.5v18.1
				C235.2,192.8,237.3,194.9,240,194.9z"/>
			<path class="st0" d="M180.2,188.4l9.7,15.7c1.3,2.2,4.3,2.9,6.6,1.7s3.1-4,1.8-6.2c0,0,0,0,0-0.1l-9.7-15.7
				c-1.3-2.2-4.3-2.9-6.6-1.7C179.7,183.4,178.9,186.2,180.2,188.4C180.2,188.4,180.2,188.4,180.2,188.4z"/>
			<path class="st0" d="M141.3,228.2C141.3,228.2,141.3,228.3,141.3,228.2l16.8,9.1c2.3,1.3,5.3,0.5,6.6-1.6
				c1.3-2.2,0.6-4.9-1.7-6.2c0,0,0,0-0.1,0l-16.7-9.1c-2.3-1.3-5.3-0.5-6.6,1.6C138.2,224.2,139,227,141.3,228.2z"/>
			<path class="st0" d="M153,276.5c0-2.5-2.2-4.5-4.8-4.5h-19.3c-2.7,0-4.8,2-4.8,4.5c0,2.5,2.2,4.5,4.8,4.5h19.3
				C150.8,281,153,279,153,276.5z"/>
			<path class="st0" d="M158.1,315.6C158.1,315.6,158.1,315.6,158.1,315.6l-16.8,9.1c-2.3,1.2-3.1,4-1.8,6.2s4.3,2.9,6.6,1.7
				c0,0,0,0,0.1,0l16.7-9.1c2.3-1.2,3.1-4,1.8-6.2C163.4,315.1,160.4,314.3,158.1,315.6z"/>
			<path class="st0" d="M338.7,324.7C338.7,324.7,338.7,324.7,338.7,324.7l-16.8-9.1c-2.3-1.3-5.3-0.5-6.6,1.6
				c-1.4,2.2-0.6,4.9,1.7,6.2c0,0,0,0,0.1,0l16.7,9.1c2.3,1.3,5.3,0.5,6.6-1.6C341.8,328.8,341,326,338.7,324.7z"/>
			<path class="st0" d="M351.2,271.9h-19.3c-2.7,0-4.8,2-4.8,4.5c0,2.5,2.2,4.5,4.8,4.5h19.3c2.7,0,4.8-2,4.8-4.5
				C356,274,353.8,271.9,351.2,271.9z"/>
			<path class="st0" d="M319.5,237.9c0.8,0,1.7-0.2,2.4-0.6l16.7-9.1c2.3-1.2,3.1-4,1.8-6.2c-1.3-2.2-4.3-2.9-6.6-1.7c0,0,0,0-0.1,0
				l-16.7,9.1c-2.3,1.3-3.1,4-1.8,6.2C316.2,237.1,317.8,237.9,319.5,237.9z"/>
			<path class="st0" d="M283.5,205.8C283.5,205.8,283.5,205.8,283.5,205.8c2.3,1.3,5.3,0.5,6.6-1.7c0,0,0,0,0,0l9.7-15.7
				c1.4-2.2,0.6-4.9-1.7-6.2c-2.3-1.3-5.3-0.5-6.6,1.6c0,0,0,0,0,0.1l-9.7,15.7C280.4,201.8,281.2,204.5,283.5,205.8z"/>
			<path class="st0" d="M249.7,349c2.7,0,4.8-2,4.8-4.5v-49.9h9.7c10.7,0,19.3-8.1,19.3-18.1c0-10-8.7-18.1-19.3-18.1
				c-10.7,0-19.3,8.1-19.3,18.1v9.1h-9.7v-9.1c0-10-8.7-18.1-19.3-18.1c-10.7,0-19.3,8.1-19.3,18.1c0,10,8.7,18.1,19.3,18.1h9.7
				v49.9c0,2.5,2.2,4.5,4.8,4.5s4.8-2,4.8-4.5v-49.9h9.7v49.9C244.8,347,247,349,249.7,349z M254.5,276.5c0-5,4.3-9.1,9.7-9.1
				s9.7,4.1,9.7,9.1c0,5-4.3,9.1-9.7,9.1h-9.7V276.5z M225.5,285.5h-9.7c-5.3,0-9.7-4.1-9.7-9.1c0-5,4.3-9.1,9.7-9.1
				s9.7,4.1,9.7,9.1V285.5z"/>
			<path class="st0" d="M243.8,204c-42.7-1.9-78.9,29-81,69c-1.2,22.9,9.3,45,28.2,59.5c3.4,2.5,5.4,6.3,5.5,10.4v10.6
				c0,5.7,3.9,10.9,9.7,12.8v5.4c0,3.4,1.4,6.6,3.8,9.1c-5,5.1-5,13,0,18.1c-5.4,5.5-5,14.1,0.9,19.1c2.7,2.3,6.2,3.6,9.8,3.5
				c2.6,0.1,4.8-1.9,4.8-4.3c0-1-0.3-1.9-0.9-2.7c-0.2-0.3-0.3-0.5-0.5-0.8c-0.4-0.3-0.9-0.6-1.3-0.8c-0.1-0.1-0.3-0.1-0.4-0.2
				c-0.5-0.2-1-0.3-1.5-0.3c0,0-0.1,0-0.1,0c-2.7,0-4.8-2-4.8-4.5s2.2-4.5,4.8-4.5H240c2.7,0,4.8-2,4.8-4.5s-2.2-4.5-4.8-4.5h-19.3
				c-2.7,0-4.8-2-4.8-4.5s2.2-4.5,4.8-4.5H240c2.7,0,4.8-2,4.8-4.5s-2.2-4.5-4.8-4.5h-19.3c-2.7,0-4.8-2-4.8-4.5v-4.5H240
				c2.7,0,4.8-2,4.8-4.5c0-2.5-2.2-4.5-4.8-4.5h-29c-2.7,0-4.8-2-4.8-4.5v-10.6c-0.1-6.8-3.4-13.2-9.1-17.4
				c-28.9-22.3-33-62.2-9.3-89.3c13.6-15.5,34.2-24.1,55.5-23.1c35.7,2,63.8,29.4,64.4,63c0.2,19.3-9.1,37.6-25.1,49.7
				c-5.6,4.3-8.8,10.8-8.7,17.6v10.1c0,2.5-2.2,4.5-4.8,4.5h-14.5c-2.7,0-4.8,2-4.8,4.5c0,2.5,2.2,4.5,4.8,4.5h9.7v4.5
				c0,2.5-2.2,4.5-4.8,4.5h-4.8c-2.7,0-4.8,2-4.8,4.5s2.2,4.5,4.8,4.5h4.8c2.7,0,4.8,2,4.8,4.5s-2.2,4.5-4.8,4.5h-4.8
				c-2.7,0-4.8,2-4.8,4.5s2.2,4.5,4.8,4.5h4.8c2.7,0,4.8,2,4.8,4.5s-2.2,4.5-4.8,4.5h-24.2c-2.7,0-4.8,2-4.8,4.5
				c0,2.5,2.2,4.5,4.8,4.5h18.5c-2.7,7.1-11,10.8-18.5,8.3c-2.3-0.8-4.4-2.1-6-3.8c-1.8-1.9-4.8-2-6.8-0.4c-2,1.7-2.2,4.5-0.4,6.4
				c8.8,9.3,24.1,10.2,34,1.9c4.1-3.4,6.9-8.1,7.8-13.2c7.6-2.2,11.8-9.8,9.4-16.9c-0.6-1.9-1.7-3.6-3.1-5.1c5-5.1,5-13,0-18.1
				c2.4-2.5,3.8-5.7,3.8-9.1v-5.4c5.8-1.9,9.6-7,9.7-12.8v-10.1c-0.1-4.1,1.8-8,5.1-10.6c18.3-13.8,28.9-34.8,28.7-56.8
				C316.6,237.7,284.6,206.3,243.8,204z"/>
		</g>
	</g>
</g>
<g>
	<g>
		<path class="st0" d="M367.1,149.5c0,3.8,3.1,6.9,6.9,6.9h14.6v14.6c0,3.8,3.1,6.9,6.9,6.9c3.8,0,6.9-3.1,6.9-6.9v-14.6H417
			c3.8,0,6.9-3.1,6.9-6.9c0-3.8-3.1-6.9-6.9-6.9h-14.6V128c0-3.8-3.1-6.9-6.9-6.9c-3.8,0-6.9,3.1-6.9,6.9v14.6H374
			C370.2,142.6,367.1,145.7,367.1,149.5z M389.8,144.9c0.6,0,1.1-0.5,1.1-1.1V128c0-2.5,2.1-4.6,4.6-4.6c2.5,0,4.6,2.1,4.6,4.6v15.8
			c0,0.6,0.5,1.1,1.1,1.1H417c2.5,0,4.6,2.1,4.6,4.6c0,2.5-2.1,4.6-4.6,4.6h-15.8c-0.6,0-1.1,0.5-1.1,1.1v15.8
			c0,2.5-2.1,4.6-4.6,4.6c-2.5,0-4.6-2.1-4.6-4.6v-15.8c0-0.6-0.5-1.1-1.1-1.1H374c-2.5,0-4.6-2.1-4.6-4.6c0-2.5,2.1-4.6,4.6-4.6
			L389.8,144.9L389.8,144.9z"/>
	</g>
</g>
<g>
	<g>
		<path class="st0" d="M56.2,145.5c0,3.8,3.1,6.9,6.9,6.9h14.6V167c0,3.8,3.1,6.9,6.9,6.9c3.8,0,6.9-3.1,6.9-6.9v-14.6H106
			c3.8,0,6.9-3.1,6.9-6.9c0-3.8-3.1-6.9-6.9-6.9H91.4V124c0-3.8-3.1-6.9-6.9-6.9c-3.8,0-6.9,3.1-6.9,6.9v14.6H63
			C59.2,138.7,56.2,141.7,56.2,145.5z M78.8,140.9c0.6,0,1.1-0.5,1.1-1.1V124c0-2.5,2.1-4.6,4.6-4.6c2.5,0,4.6,2.1,4.6,4.6v15.8
			c0,0.6,0.5,1.1,1.1,1.1H106c2.5,0,4.6,2.1,4.6,4.6c0,2.5-2.1,4.6-4.6,4.6H90.2c-0.6,0-1.1,0.5-1.1,1.1V167c0,2.5-2.1,4.6-4.6,4.6
			c-2.5,0-4.6-2.1-4.6-4.6v-15.8c0-0.6-0.5-1.1-1.1-1.1H63c-2.5,0-4.6-2.1-4.6-4.6c0-2.5,2.1-4.6,4.6-4.6L78.8,140.9L78.8,140.9z"/>
	</g>
</g>
<g>
	<g>
		<path class="st0" d="M122.9,68.2c0,3.8,3.1,6.9,6.9,6.9h14.6v14.6c0,3.8,3.1,6.9,6.9,6.9c3.8,0,6.9-3.1,6.9-6.9V75.1h14.6
			c3.8,0,6.9-3.1,6.9-6.9c0-3.8-3.1-6.9-6.9-6.9h-14.6V46.7c0-3.8-3.1-6.9-6.9-6.9c-3.8,0-6.9,3.1-6.9,6.9v14.6h-14.6
			C126,61.4,122.9,64.4,122.9,68.2z M145.6,63.7c0.6,0,1.1-0.5,1.1-1.1V46.7c0-2.5,2.1-4.6,4.6-4.6c2.5,0,4.6,2.1,4.6,4.6v15.8
			c0,0.6,0.5,1.1,1.1,1.1h15.8c2.5,0,4.6,2.1,4.6,4.6c0,2.5-2.1,4.6-4.6,4.6H157c-0.6,0-1.1,0.5-1.1,1.1v15.8c0,2.5-2.1,4.6-4.6,4.6
			c-2.5,0-4.6-2.1-4.6-4.6V73.9c0-0.6-0.5-1.1-1.1-1.1h-15.8c-2.5,0-4.6-2.1-4.6-4.6s2.1-4.6,4.6-4.6L145.6,63.7L145.6,63.7z"/>
	</g>
</g>
<g>
	<g>
		<path class="st0" d="M211.7,117.2c0,3.8,3.1,6.9,6.9,6.9h14.6v14.6c0,3.8,3.1,6.9,6.9,6.9c3.8,0,6.9-3.1,6.9-6.9V124h14.6
			c3.8,0,6.9-3.1,6.9-6.9c0-3.8-3.1-6.9-6.9-6.9h-14.6V95.7c0-3.8-3.1-6.9-6.9-6.9c-3.8,0-6.9,3.1-6.9,6.9v14.6h-14.6
			C214.8,110.3,211.7,113.4,211.7,117.2z M234.3,112.6c0.6,0,1.1-0.5,1.1-1.1V95.7c0-2.5,2.1-4.6,4.6-4.6c2.5,0,4.6,2.1,4.6,4.6
			v15.8c0,0.6,0.5,1.1,1.1,1.1h15.8c2.5,0,4.6,2.1,4.6,4.6c0,2.5-2.1,4.6-4.6,4.6h-15.8c-0.6,0-1.1,0.5-1.1,1.1v15.8
			c0,2.5-2.1,4.6-4.6,4.6c-2.5,0-4.6-2.1-4.6-4.6v-15.8c0-0.6-0.5-1.1-1.1-1.1h-15.8c-2.5,0-4.6-2.1-4.6-4.6c0-2.5,2.1-4.6,4.6-4.6
			L234.3,112.6L234.3,112.6z"/>
	</g>
</g>
<g>
	<g>
		<path class="st0" d="M298,68.2c0,3.8,3.1,6.9,6.9,6.9h14.6v14.6c0,3.8,3.1,6.9,6.9,6.9c3.8,0,6.9-3.1,6.9-6.9V75.1h14.6
			c3.8,0,6.9-3.1,6.9-6.9c0-3.8-3.1-6.9-6.9-6.9h-14.6V46.7c0-3.8-3.1-6.9-6.9-6.9c-3.8,0-6.9,3.1-6.9,6.9v14.6h-14.6
			C301.1,61.4,298,64.4,298,68.2z M320.6,63.7c0.6,0,1.1-0.5,1.1-1.1V46.7c0-2.5,2.1-4.6,4.6-4.6c2.5,0,4.6,2.1,4.6,4.6v15.8
			c0,0.6,0.5,1.1,1.1,1.1h15.8c2.5,0,4.6,2.1,4.6,4.6c0,2.5-2.1,4.6-4.6,4.6h-15.8c-0.6,0-1.1,0.5-1.1,1.1v15.8
			c0,2.5-2.1,4.6-4.6,4.6c-2.5,0-4.6-2.1-4.6-4.6V73.9c0-0.6-0.5-1.1-1.1-1.1h-15.8c-2.5,0-4.6-2.1-4.6-4.6c0-2.5,2.1-4.6,4.6-4.6
			L320.6,63.7L320.6,63.7z"/>
	</g>
</g>
</svg>
