<?xml version="1.0" encoding="utf-8"?>
<!-- Generator: Adobe Illustrator 24.3.0, SVG Export Plug-In . SVG Version: 6.00 Build 0)  -->
<svg version="1.1" id="Capa_1" xmlns="http://www.w3.org/2000/svg" xmlns:xlink="http://www.w3.org/1999/xlink" x="0px" y="0px"
	 viewBox="0 0 77.7 77.7" style="enable-background:new 0 0 77.7 77.7;" xml:space="preserve">
<style type="text/css">
	.st0{fill:#FFFFFF;}
</style>
<g>
	<g>
		<g>
			<path class="st0" d="M12.7,77.7c-2.8,0-5.3-2.1-5.8-4.9c-0.4-2.1,0.4-5,6-6.9c1.5-0.8,2.9-1.7,4-2.7c1.2-1,2.2-2.2,3-3.5
				c0.8-1.4,1.4-3,1.9-4.8c0.4-1.8,0.7-4,0.7-6.4c0-1.6-0.2-3.2-0.5-4.7l-8.5,0c-0.1,0-0.2,0-0.3,0l-0.3-0.1c-2.6-0.3-4.5-2.5-4.5-5
				c0-2.6,2-4.8,4.6-5.1c0,0,0.1,0,0.1,0l5.9,0c-0.6-2.1-1.1-4.1-1.4-5.8C17.2,25.5,17,23.6,17,22c0-3.4,0.6-6.4,1.8-9.2
				c1.2-2.8,2.8-5.1,5-7c2.1-1.9,4.6-3.3,7.6-4.4c2.9-1,6.1-1.5,9.6-1.5c3.2,0,6.2,0.4,8.9,1.3c2.7,0.9,5.1,2.2,7.2,3.8
				c2,1.7,3.7,3.8,4.9,6.3c1.2,2.5,2,5.4,2.3,8.5c0,0,0,0.1,0,0.1l0,0.1c0,0.1,0,0.3,0,0.4l0,0.6c-0.3,3.2-3,5.6-6.2,5.6
				c-3,0-5.6-2.2-6.1-5.2c-0.1-0.3-0.2-0.7-0.2-0.9c0-0.1,0-0.1,0-0.2l0-0.1c0-0.1,0-0.1,0-0.2c-0.6-6.8-4-9.9-11-9.9
				c-1.7,0-3.2,0.3-4.6,0.9c-1.3,0.6-2.5,1.4-3.4,2.3c-1,1-1.7,2.2-2.3,3.5c-0.5,1.3-0.8,2.8-0.8,4.2c0,3.3,0.8,7.4,2.3,12.4l14.3,0
				c0.1,0,0.1,0,0.2,0c0,0,0,0,0.1,0c0.2,0,0.4,0,0.6,0.1c2.4,0.4,4.1,2.5,4.1,5c0,2.2-1.4,4.1-3.5,4.8c-0.3,0.1-0.7,0.2-1.1,0.3
				c0,0-0.1,0-0.1,0l-12,0c0.2,1,0.3,2,0.3,3c0,2.1-0.2,4.1-0.5,5.9c-0.3,1.8-0.9,3.5-1.7,5c-0.8,1.5-1.8,3-3,4.4
				c-0.2,0.2-0.4,0.4-0.6,0.6c0.8-0.1,1.6-0.1,2.4-0.1c1.3,0,3,0.2,5.1,0.5c2,0.3,4.1,0.7,6.2,1.1c2.1,0.4,4.1,0.7,5.9,1
				c2.3,0.4,3.2,0.5,3.5,0.5c3.5,0,6.9-0.8,10.2-2.5c0,0,0.1,0,0.1-0.1l0.2-0.1c0.3-0.1,0.7-0.2,1.1-0.3l0.3-0.1
				c0.1,0,0.2-0.1,0.3-0.1c3-0.3,5.8,1.7,6.5,4.6c0.7,3.2-1.3,6.4-4.5,7.1c-0.3,0.1-1.5,0.6-1.9,0.7c-0.3,0.1-6.1,2.4-11.6,2.4
				l-0.2,0c-0.8,0-1.7-0.1-3-0.4c-1.2-0.2-2.4-0.5-3.8-0.8c-1.4-0.3-2.8-0.7-4.3-1.1c-1.5-0.4-2.9-0.7-4.3-1
				c-1.4-0.3-2.7-0.6-3.8-0.8c-1.3-0.3-2.1-0.3-2.5-0.3c-4.9,0-10.6,1.4-16.9,4.3c-0.2,0.1-0.3,0.1-0.5,0.2
				C13.2,77.6,12.9,77.7,12.7,77.7z M13.5,40.7l9.6,0c0.7,0,1.3,0.5,1.5,1.2l0.2,1.1c0.4,1.8,0.6,3.6,0.6,5.5c0,2.6-0.3,5-0.8,7.1
				c-0.5,2.1-1.3,4-2.2,5.6c-1,1.6-2.2,3.1-3.6,4.3c-1.4,1.2-2.9,2.2-4.7,3.2c-0.1,0-0.1,0.1-0.2,0.1c-2,0.7-4.4,1.9-4.1,3.6
				c0.3,1.5,1.6,2.5,3.1,2.4c6.6-3,12.7-4.5,18-4.5c0.8,0,1.8,0.1,3,0.4c1.2,0.2,2.5,0.5,3.9,0.8c1.4,0.3,2.9,0.7,4.4,1.1
				c1.5,0.4,2.9,0.7,4.3,1c1.4,0.3,2.6,0.6,3.8,0.8c1,0.2,1.8,0.3,2.4,0.3h0.2c4.9,0,10.2-2.1,10.4-2.2c0.5-0.2,2.1-0.8,2.1-0.8
				c0.1,0,0.1,0,0.2-0.1c1.6-0.4,2.7-2,2.3-3.6c-0.3-1.4-1.7-2.4-3.1-2.3l-0.5,0.1c-0.3,0-0.4,0.1-0.4,0.1c0,0-0.1,0-0.1,0l-0.1,0.1
				c-3.7,1.9-7.5,2.8-11.5,2.8c-0.8,0-2.1-0.2-4-0.6c-1.8-0.3-3.8-0.7-5.9-1C40.1,66.8,38,66.4,36,66c-2-0.3-3.5-0.5-4.6-0.5
				c-0.8,0-1.6,0-2.4,0.1L25.4,66c-0.6,0.1-1.2-0.3-1.5-0.8c-0.3-0.6-0.2-1.2,0.2-1.7l2.5-2.7c0.2-0.3,0.5-0.5,0.7-0.8
				c1-1.2,1.9-2.5,2.5-3.8c0.6-1.3,1.1-2.7,1.4-4.3c0.3-1.6,0.4-3.4,0.4-5.3c0-0.8-0.1-1.6-0.3-2.4L31,42.6c-0.1-0.4,0-0.9,0.3-1.3
				c0.3-0.4,0.7-0.6,1.2-0.6l13.8,0c0.1,0,0.1,0,0.1,0c0.1,0,0.1,0,0.2-0.1c0.9-0.3,1.5-1.1,1.5-2c0-1-0.7-1.9-1.7-2
				c0,0-0.1,0-0.1,0l0,0l-0.1,0l-15.4,0c-0.7,0-1.2-0.4-1.4-1.1l-0.3-1c-1.6-5.3-2.5-9.8-2.5-13.4c0-1.9,0.4-3.7,1-5.4
				c0.7-1.7,1.6-3.2,2.9-4.5c1.2-1.3,2.7-2.3,4.4-3.1c1.7-0.7,3.7-1.1,5.8-1.1c8.5,0,13.2,4.2,14,12.5c0,0,0,0.1,0,0.1
				c0,0,0,0.1,0,0.1l0,0.3c0,0.1,0,0.1,0,0.2c0,0,0,0.1,0.1,0.2c0,0.1,0,0.2,0.1,0.2c0.2,1.7,1.5,2.8,3.2,2.8c1.6,0,3-1.2,3.2-2.9
				l0-0.5l0-0.2c-0.3-2.8-0.9-5.3-2-7.4c-1.1-2.1-2.5-3.9-4.2-5.3c-1.7-1.4-3.8-2.5-6.1-3.3c-2.4-0.8-5.1-1.1-8-1.1
				c-3.1,0-6,0.5-8.6,1.3c-2.5,0.9-4.7,2.1-6.5,3.8c-1.8,1.6-3.2,3.6-4.2,5.9c-1,2.4-1.5,5.1-1.5,8c0,1.4,0.2,3.1,0.6,5.2
				c0.3,1.6,0.8,3.5,1.4,5.6l0.5,1.8c0.1,0.5,0,0.9-0.2,1.3c-0.3,0.4-0.7,0.6-1.2,0.6c0,0,0,0,0,0l-7.9,0c-1,0.1-1.8,1-1.8,2.1
				c0,1.1,0.8,1.9,1.9,2.1c0,0,0.1,0,0.1,0L13.5,40.7z"/>
		</g>
	</g>
</g>
</svg>
