<?xml version="1.0" encoding="utf-8"?>
<!-- Generator: Adobe Illustrator 24.3.0, SVG Export Plug-In . SVG Version: 6.00 Build 0)  -->
<svg version="1.1" id="Capa_1" xmlns="http://www.w3.org/2000/svg" xmlns:xlink="http://www.w3.org/1999/xlink" x="0px" y="0px"
	 viewBox="0 0 512 512" style="enable-background:new 0 0 512 512;" xml:space="preserve">
<style type="text/css">
	.st0{fill:#6B30B5;}
</style>
<g>
	<g>
		<path class="st0" d="M265.8,513.1c-30.2,0-59.8-8.5-83.3-24.1C151,468.3,133,437.4,133,404.4c0-38.3,25-74.1,65.3-93.6
			c4.7-2.2,10.6-1,13.4,2.8c2.7,3.8,1.2,8.7-3.4,11c-34.4,16.6-55.7,47.2-55.7,79.8c0,28.2,15.4,54.5,42.2,72.2
			c20.3,13.4,44.9,20.5,71,20.5c26.1,0,50.6-7.1,70.9-20.4c26.9-17.7,42.3-44,42.3-72.2c0-32.9-21.6-63.6-56.4-80.2
			c-4.7-2.2-6.3-7.1-3.5-10.9c2.7-3.8,8.7-5.1,13.4-2.9c40.8,19.4,66.2,55.5,66.2,94c0,33.1-18.1,64-49.6,84.7
			C325.5,504.6,296,513.1,265.8,513.1z"/>
	</g>
	<g>
		<path class="st0" d="M205.9,324.4c-5.4,0-9.8-3.6-9.8-8V55.6c0-30,31.2-54.5,69.6-54.5c38.4,0,69.6,24.4,69.6,54.5v260.9
			c0,4.4-4.4,8-9.8,8c-5.4,0-9.8-3.6-9.8-8V55.6c0-21.2-22.5-38.5-50.1-38.5s-50.1,17.3-50.1,38.5v260.9
			C215.7,320.9,211.3,324.4,205.9,324.4z"/>
	</g>
	<g>
		<g>
			<path class="st0" d="M265.8,375.5c-5.4,0-9.8-3.6-9.8-8V61.9c0-4.4,4.4-8,9.8-8c5.4,0,9.8,3.6,9.8,8v305.6
				C275.6,371.9,271.2,375.5,265.8,375.5z"/>
		</g>
		<g>
			<path class="st0" d="M265.8,449.4c-30,0-54.3-19.9-54.3-44.5c0-24.5,24.4-44.5,54.3-44.5c29.9,0,54.3,19.9,54.3,44.5
				C320.1,429.5,295.7,449.4,265.8,449.4z M265.8,376.5c-19.2,0-34.8,12.8-34.8,28.4c0,15.7,15.6,28.4,34.8,28.4
				c19.2,0,34.7-12.8,34.7-28.4C300.5,389.3,284.9,376.5,265.8,376.5z"/>
		</g>
	</g>
	<g>
		<path class="st0" d="M283,274.2h-34.5c-5.4,0-9.8-3.6-9.8-8s4.4-8,9.8-8H283c5.4,0,9.8,3.6,9.8,8S288.4,274.2,283,274.2z"/>
	</g>
	<g>
		<path class="st0" d="M283,220h-34.5c-5.4,0-9.8-3.6-9.8-8c0-4.4,4.4-8,9.8-8H283c5.4,0,9.8,3.6,9.8,8
			C292.8,216.4,288.4,220,283,220z"/>
	</g>
	<g>
		<path class="st0" d="M283,164.8h-34.5c-5.4,0-9.8-3.6-9.8-8c0-4.4,4.4-8,9.8-8H283c5.4,0,9.8,3.6,9.8,8
			C292.8,161.2,288.4,164.8,283,164.8z"/>
	</g>
	<g>
		<path class="st0" d="M283,113.7h-34.5c-5.4,0-9.8-3.6-9.8-8s4.4-8,9.8-8H283c5.4,0,9.8,3.6,9.8,8S288.4,113.7,283,113.7z"/>
	</g>
	<g>
		<path class="st0" d="M283,324.4h-34.5c-5.4,0-9.8-3.6-9.8-8s4.4-8,9.8-8H283c5.4,0,9.8,3.6,9.8,8S288.4,324.4,283,324.4z"/>
	</g>
</g>
</svg>
