<?xml version="1.0" encoding="utf-8"?>
<!-- Generator: Adobe Illustrator 24.3.0, SVG Export Plug-In . SVG Version: 6.00 Build 0)  -->
<svg version="1.1" id="Capa_1" xmlns="http://www.w3.org/2000/svg" xmlns:xlink="http://www.w3.org/1999/xlink" x="0px" y="0px"
	 viewBox="0 0 512 512" style="enable-background:new 0 0 512 512;" xml:space="preserve">
<style type="text/css">
	.st0{fill:#6B30B5;}
</style>
<g>
	<g>
		<g>
			<path class="st0" d="M467.2,394.2H44.8C20.1,394.2,0,373.4,0,347.9V46.3C0,20.8,20.1,0,44.8,0h422.4C491.9,0,512,20.8,512,46.3
				v301.6C512,373.4,491.9,394.2,467.2,394.2z M44.8,18.5C30,18.5,17.9,31,17.9,46.3v301.6c0,15.3,12.1,27.8,26.9,27.8h422.4
				c14.8,0,26.9-12.5,26.9-27.8V46.3c0-15.3-12.1-27.8-26.9-27.8H44.8z"/>
		</g>
		<g>
			<path class="st0" d="M464.9,346.4H47.1c-5,0-9-4.1-9-9.3V57c0-5.1,4-9.3,9-9.3h417.8c5,0,9,4.1,9,9.3v280.1
				C473.9,342.3,469.9,346.4,464.9,346.4z M56.1,327.9h399.9V66.3H56.1V327.9z"/>
		</g>
		<g>
			<path class="st0" d="M412.4,512H99.6c-5,0-9-4.1-9-9.3v-34.2c0-14.9,11.7-27.1,26.2-27.1h278.4c14.4,0,26.2,12.1,26.2,27.1v34.2
				C421.4,507.9,417.4,512,412.4,512z M108.5,493.5h294.9v-24.9c0-4.7-3.7-8.5-8.3-8.5H116.8c-4.6,0-8.3,3.8-8.3,8.5V493.5z"/>
		</g>
	</g>
	<g>
		<g>
			<path class="st0" d="M287,456.6c-5,0-9-4.1-9-9.3v-57.6c0-5.1,4-9.3,9-9.3c5,0,9,4.1,9,9.3v57.6C296,452.5,292,456.6,287,456.6z"
				/>
		</g>
		<g>
			<path class="st0" d="M225,456.6c-5,0-9-4.1-9-9.3v-57.6c0-5.1,4-9.3,9-9.3c5,0,9,4.1,9,9.3v57.6C234,452.5,229.9,456.6,225,456.6
				z"/>
		</g>
	</g>
	<g>
		<path class="st0" d="M95.1,171.9c-2.3,0-4.6-0.9-6.3-2.7c-3.5-3.6-3.5-9.5,0-13.1l57.7-59.6c3.5-3.6,9.2-3.6,12.7,0
			c3.5,3.6,3.5,9.5,0,13.1l-57.7,59.6C99.7,171,97.4,171.9,95.1,171.9z"/>
	</g>
	<g>
		<path class="st0" d="M100.7,232.7c-2.3,0-4.6-0.9-6.3-2.7c-3.5-3.6-3.5-9.5,0-13.1L207,100.5c3.5-3.6,9.2-3.6,12.7,0
			c3.5,3.6,3.5,9.5,0,13.1L107,229.9C105.2,231.8,103,232.7,100.7,232.7z"/>
	</g>
</g>
</svg>
